
        <svg xmlns="http://www.w3.org/2000/svg" xmlns:xlink="http://www.w3.org/1999/xlink" version="1.1" width="2970.0108394556187" height="3144.5260749126824" viewBox="0 0 2970.0108394556187 3144.5260749126824">
			
			<g transform="scale(7.226303745634109) translate(10, 10)">
				<defs id="SvgjsDefs1611"/><g id="SvgjsG1612" featureKey="rootContainer" transform="matrix(1.15,0,0,1.15,-5.75,0)" fill="#000"><path xmlns="http://www.w3.org/2000/svg" fill-rule="evenodd" d="M5,65 L175,0 L345, 65 L175, 10 z M5,281 L175,361 L345,276 L175, 351 z"/></g><g id="SvgjsG1613" featureKey="symbolFeature-0" transform="matrix(0.24853248639971154,0,0,0.24853248639971154,120.85703220891135,91.48781085522324)" fill="#000"><metadata xmlns="http://www.w3.org/2000/svg">Created by potrace 1.14, written by Peter Selinger 2001-2017</metadata><g xmlns="http://www.w3.org/2000/svg" transform="translate(0.000000,600.000000) scale(0.100000,-0.100000)"><path d="M3160 5494 c-413 -40 -538 -58 -1080 -155 -155 -28 -278 -43 -395 -50 -93 -6 -180 -14 -193 -20 -60 -24 -71 -138 -43 -444 30 -320 43 -400 117 -725 123 -538 223 -920 259 -995 31 -64 95 -145 114 -145 4 0 7 69 7 153 l-1 152 -107 325 c-219 667 -274 863 -318 1130 -37 217 -49 440 -28 480 l14 25 149 -3 c114 -3 223 4 450 27 611 62 636 63 949 62 323 -2 380 -8 585 -61 132 -35 148 -36 177 -12 36 29 51 64 53 123 3 86 -10 96 -144 114 -109 15 -478 27 -565 19z" stroke="none"/><path d="M4148 5382 c-76 -39 -361 -236 -506 -349 -170 -133 -958 -880 -1028 -976 -40 -54 -84 -150 -84 -182 0 -17 16 -20 25 -5 3 5 38 25 78 43 110 52 170 105 368 327 266 298 500 549 635 680 252 245 578 477 637 454 7 -2 44 -64 83 -137 43 -78 131 -214 218 -334 211 -293 458 -646 481 -690 11 -21 66 -122 122 -224 114 -206 139 -266 189 -449 19 -69 43 -133 53 -143 41 -42 138 -29 199 26 31 29 28 56 -19 165 -151 353 -337 629 -790 1172 -303 363 -324 390 -409 525 -34 55 -72 108 -84 117 -34 28 -87 22 -168 -20z" stroke="none"/><path d="M1182 4845 c-69 -78 -232 -321 -287 -428 -134 -257 -244 -526 -449 -1092 -42 -115 -115 -290 -163 -387 -98 -202 -98 -206 -19 -274 45 -39 299 -167 522 -262 239 -102 1292 -421 1444 -437 100 -11 240 21 184 41 -10 4 -39 23 -64 42 -100 76 -163 96 -540 176 -636 134 -854 189 -1060 264 -304 111 -479 200 -495 251 -4 14 17 56 71 142 45 73 114 207 169 328 270 601 329 722 482 975 140 233 165 266 303 410 101 106 110 118 110 153 -1 51 -16 76 -70 112 -64 43 -90 41 -138 -14z" stroke="none"/><path d="M3692 3829 c-90 -15 -90 -20 0 -78 132 -87 164 -97 535 -176 668 -141 871 -192 1108 -281 262 -98 455 -200 455 -242 0 -10 -32 -69 -72 -132 -39 -63 -107 -194 -151 -290 -323 -714 -342 -753 -510 -1030 -131 -217 -174 -274 -324 -431 -87 -90 -94 -105 -72 -167 13 -39 93 -92 137 -92 27 0 39 9 77 58 95 119 244 352 302 472 149 305 205 442 389 950 80 218 139 364 195 473 43 87 79 170 79 184 0 51 -82 114 -262 201 -353 173 -466 215 -1008 377 -657 197 -766 222 -878 204z" stroke="none"/><path d="M2881 3290 c-65 -23 -101 -46 -101 -63 0 -7 -22 -29 -49 -50 -64 -47 -98 -106 -118 -203 -14 -70 -14 -80 1 -111 9 -18 16 -44 16 -57 0 -56 32 -126 81 -180 59 -65 105 -95 151 -101 18 -2 60 -13 93 -25 70 -26 133 -22 217 11 75 29 218 175 241 245 27 81 32 159 13 188 -9 14 -16 38 -16 54 0 16 -7 49 -16 75 -28 81 -148 197 -204 197 -15 0 -47 9 -71 20 -58 26 -165 26 -238 0z" stroke="none"/><path d="M4095 2688 l1 -153 106 -320 c102 -308 214 -669 257 -825 74 -273 124 -709 91 -796 l-11 -27 -147 6 c-116 5 -196 1 -382 -18 -711 -72 -676 -70 -1020 -67 -345 2 -354 3 -582 59 -140 35 -147 36 -172 20 -38 -25 -57 -60 -62 -115 -6 -62 8 -100 42 -112 42 -16 329 -41 474 -41 284 0 564 34 1227 152 211 37 325 52 449 58 192 11 209 18 232 92 22 72 2 407 -43 719 -18 123 -125 591 -230 1010 -79 313 -112 400 -179 473 -19 20 -39 37 -43 37 -4 0 -8 -69 -8 -152z" stroke="none"/><path d="M466 2402 c-68 -39 -74 -57 -46 -134 41 -114 167 -366 234 -467 176 -269 310 -443 710 -920 101 -121 212 -266 256 -335 43 -67 87 -131 98 -143 33 -35 92 -31 177 13 110 56 477 317 610 434 194 171 844 793 908 869 46 56 86 134 94 187 6 37 5 38 -13 23 -10 -8 -59 -34 -107 -58 -107 -52 -149 -91 -446 -424 -117 -130 -289 -319 -384 -419 -316 -334 -728 -646 -793 -601 -6 5 -42 66 -81 138 -40 74 -132 216 -214 330 -183 253 -392 551 -446 635 -22 36 -92 160 -156 275 -113 208 -167 341 -207 513 -17 74 -44 103 -100 108 -36 3 -55 -2 -94 -24z" stroke="none"/></g></g><g id="SvgjsG1614" featureKey="nameFeature-0" transform="matrix(0.9752237488343072,0,0,0.9752237488343072,19.439641978613963,258.00316730565953)" fill="#000"><path d="M1.6 40 l0 -31.2 l15.52 0 c3.24 0 5.76 0.8 7.52 2.4 c1.72 1.6 2.6 3.72 2.6 6.4 c0 3.04 -1.28 5.28 -3.8 6.68 c2.52 1.44 3.8 3.88 3.8 6.92 c0 2.68 -0.88 4.8 -2.6 6.4 c-1.76 1.64 -4.28 2.4 -7.52 2.4 l-15.52 0 z M9.6 21.32 l6.6 0 c1.96 0 2.96 -0.88 2.96 -2.56 c0 -0.76 -0.2 -1.4 -0.64 -1.88 c-0.44 -0.44 -1.04 -0.64 -1.88 -0.64 l-7.04 0 l0 5.08 z M9.6 32.56 l7.04 0 c0.84 0 1.44 -0.2 1.88 -0.64 c0.44 -0.48 0.64 -1.08 0.64 -1.88 c0 -1.68 -1 -2.56 -2.96 -2.56 l-6.6 0 l0 5.08 z M48.492 40 c-4.52 0 -8.04 -1.28 -10.56 -3.92 c-2.52 -2.6 -3.76 -5.92 -3.76 -10.04 l0 -17.24 l8 0 l0 16.76 c0 2.24 0.52 3.92 1.6 5.08 c1.08 1.2 2.64 1.8 4.72 1.8 s3.68 -0.6 4.76 -1.8 c1.08 -1.16 1.64 -2.84 1.64 -5.08 l0 -16.76 l7.96 0 l0 17.24 c0 4.08 -1.28 7.4 -3.8 10.04 s-6.04 3.92 -10.56 3.92 z M69.784 40 l0 -31.2 l8 0 l0 31.2 l-8 0 z M84.716 40 l0 -31.2 l7.96 0 l0 23.48 l14.96 0 l0 7.72 l-22.92 0 z M114.568 40 l0 -31.2 l14.48 0 c3.16 0 5.84 0.72 8.12 2.16 s3.96 3.32 5.04 5.64 s1.6 4.92 1.6 7.8 c0 2.92 -0.52 5.52 -1.6 7.84 s-2.76 4.2 -5.04 5.6 c-2.28 1.44 -4.96 2.16 -8.12 2.16 l-14.48 0 z M122.568 32.28 l5.88 0 c2.32 0 4.12 -0.72 5.4 -2.16 c1.24 -1.4 1.88 -3.32 1.88 -5.72 s-0.64 -4.32 -1.88 -5.72 c-1.28 -1.4 -3.08 -2.12 -5.4 -2.12 l-5.88 0 l0 15.72 z M159.5 40 l-8.76 -31.2 l8.52 0 l5.04 18.6 l5.84 -18.6 l7.12 0 l5.84 18.56 l5.04 -18.56 l8.56 0 l-8.76 31.2 l-8.28 0 l-5.96 -18.12 l-5.92 18.12 l-8.28 0 z M203.632 40 l0 -31.2 l23.96 0 l0 7.76 l-15.96 0 l0 4.48 l11.24 0 l0 7.24 l-11.24 0 l0 4 l15.96 0 l0 7.72 l-23.96 0 z M234.524 40 l0 -31.2 l15.52 0 c3.24 0 5.76 0.8 7.52 2.4 c1.72 1.6 2.6 3.72 2.6 6.4 c0 3.04 -1.28 5.28 -3.8 6.68 c2.52 1.44 3.8 3.88 3.8 6.92 c0 2.68 -0.88 4.8 -2.6 6.4 c-1.76 1.64 -4.28 2.4 -7.52 2.4 l-15.52 0 z M242.524 21.32 l6.6 0 c1.96 0 2.96 -0.88 2.96 -2.56 c0 -0.76 -0.2 -1.4 -0.64 -1.88 c-0.44 -0.44 -1.04 -0.64 -1.88 -0.64 l-7.04 0 l0 5.08 z M242.524 32.56 l7.04 0 c0.84 0 1.44 -0.2 1.88 -0.64 c0.44 -0.48 0.64 -1.08 0.64 -1.88 c0 -1.68 -1 -2.56 -2.96 -2.56 l-6.6 0 l0 5.08 z M277.696 39.72 c-2.84 0 -5.28 -0.8 -7.4 -2.44 s-3.2 -3.8 -3.2 -6.56 l0 -0.8 l7.56 0 l0 0.16 c0 0.84 0.32 1.44 0.92 1.8 s1.32 0.52 2.08 0.52 c0.92 0 1.64 -0.24 2.16 -0.72 s0.76 -1.04 0.76 -1.64 c0 -2.04 -0.96 -3.24 -5.6 -3.24 l-1.48 0 l-0.08 -5.8 l1.56 0 c4.64 0 5.6 -1.08 5.6 -3.12 c0 -0.6 -0.24 -1.16 -0.76 -1.64 s-1.24 -0.72 -2.16 -0.72 c-0.76 0 -1.48 0.16 -2.08 0.52 s-0.92 0.96 -0.92 1.8 l0 0.16 l-7.56 0 l0 -0.8 c0 -2.76 1.08 -4.92 3.2 -6.56 s4.56 -2.44 7.4 -2.44 c2.88 0 5.4 0.8 7.56 2.4 s3.24 3.68 3.24 6.28 c0 2.96 -1.28 5.32 -3.84 7.08 c2.56 1.76 3.84 4.12 3.84 7.08 c0 2.6 -1.08 4.68 -3.24 6.28 s-4.68 2.4 -7.56 2.4 z M300.468 40.68 c-1.4 0 -2.56 -0.48 -3.56 -1.48 s-1.48 -2.16 -1.48 -3.56 s0.48 -2.56 1.48 -3.56 s2.16 -1.48 3.56 -1.48 s2.56 0.48 3.56 1.48 s1.48 2.16 1.48 3.56 s-0.48 2.56 -1.48 3.56 s-2.16 1.48 -3.56 1.48 z M312.44 40 l0 -31.2 l8 0 l0 31.2 l-8 0 z M343.932 40.6 c-4.52 0 -8.4 -1.6 -11.64 -4.76 c-3.28 -3.16 -4.92 -7 -4.92 -11.44 s1.64 -8.28 4.92 -11.44 c3.24 -3.16 7.12 -4.76 11.64 -4.76 c4.56 0 8.48 1.6 11.72 4.76 s4.84 7 4.84 11.44 s-1.6 8.28 -4.84 11.44 s-7.16 4.76 -11.72 4.76 z M343.932 32.88 c2.4 0 4.4 -0.84 6.04 -2.48 s2.44 -3.64 2.44 -6 s-0.8 -4.4 -2.44 -6.04 s-3.64 -2.44 -6.04 -2.44 c-2.36 0 -4.36 0.84 -6 2.48 s-2.48 3.64 -2.48 6 s0.84 4.36 2.48 6 s3.64 2.48 6 2.48 z"/></g>
			</g>
		</svg>
	